# xmcd
#
# Track frame offsets: 
#        150
#        21340
#        40048
#        65086
#        89160
#        116778
#        135041
#        151590
#        173889
#        194764
#        211268
#        230297
#
# Disc length: 3337 seconds
#
# Revision: 0
# Processed by: cddbd v1.5.2PL0 Copyright (c) Steve Scherf et al.
# Submitted via: ExactAudioCopy v1.0b4
#
DISCID=a10d070c
DTITLE=Troy Redfern - Werewolf Etiquette
DYEAR=2013
DGENRE=Blues Rock
TTITLE0=What Goes Around
TTITLE1=It Stacks
TTITLE2=This Raging Heart
TTITLE3=All Falls Down
TTITLE4=Karma Blues
TTITLE5=Lucky 7
TTITLE6=Midnight Hiway
TTITLE7=One Horse Town
TTITLE8=Only The Good
TTITLE9=Slips Away
TTITLE10=The Fire
TTITLE11=Breakin' Away
EXTD=
EXTT0=
EXTT1=
EXTT2=
EXTT3=
EXTT4=
EXTT5=
EXTT6=
EXTT7=
EXTT8=
EXTT9=
EXTT10=
EXTT11=
PLAYORDER=
